<svg id="Design" xmlns="http://www.w3.org/2000/svg" viewBox="0 0 237.956 248.031"><defs><style>.cls-1{fill:#ee7339;}.cls-2{fill:#a6002a;}.cls-3{fill:#d42d06;}.cls-4{fill:#fff;}.cls-5{fill:#8a0a00;}</style></defs><title>logo</title><polygon class="cls-1" points="119.042 218.236 208.155 166.787 193.304 55.313 29.929 98.188 119.042 218.236"/><polygon class="cls-2" points="193.304 55.313 59.633 63.888 29.929 98.188 193.304 55.313"/><polygon class="cls-3" points="29.929 98.188 29.929 149.638 119.042 218.236 29.929 98.188"/><path class="cls-4" d="M179.33,149.37l9.589-28.082-4.646-2.684-4.65,2.684-2.942,9.119c-.942,2.884-1.765,5.588-2.529,8.352h-.12c-.821-2.7-1.763-5.588-2.7-8.352l-3.12-9.119h-6.241l-3.12,9.119c-.942,2.764-1.883,5.648-2.7,8.352h-.12c-.764-2.764-1.588-5.468-2.529-8.352l-2.942-9.119L145.9,118.6l-4.647,2.684,9.589,28.082h9.182l2.351-6.9c1-2.884,1.883-5.594,2.649-8.237h.122c.767,2.643,1.648,5.353,2.649,8.237l2.351,6.9Z"/><path class="cls-4" d="M111.436,105.243l4.431-2.562,4.512,2.562v17.3l.121.06a13.18,13.18,0,0,1,7.118-2c7.178,0,13.65,5.593,13.65,14.591,0,9.179-6.647,15.654-15.651,15.654a18.471,18.471,0,0,1-7.178-1.472h-7ZM124.972,143.6c4.822,0,7.3-3.765,7.3-8s-2.531-7.531-6.945-7.531a9.788,9.788,0,0,0-4.943,1.412v13A10.117,10.117,0,0,0,124.972,143.6Z"/><path class="cls-4" d="M77.258,105.234l4.432-2.562,4.512,2.562v17.3l.12.06a13.185,13.185,0,0,1,7.118-2c7.179,0,13.651,5.594,13.651,14.592,0,9.179-6.648,15.654-15.651,15.654a18.467,18.467,0,0,1-7.178-1.472h-7ZM90.794,143.6c4.822,0,7.3-3.765,7.3-8s-2.532-7.531-6.946-7.531a9.781,9.781,0,0,0-4.942,1.412v13A10.113,10.113,0,0,0,90.794,143.6Z"/><path class="cls-4" d="M179.33,149.378l9.622-28.178-4.679-2.7-4.614,2.661-2.978,9.253c-.942,2.884-1.765,5.588-2.529,8.352h-.12c-.821-2.7-1.763-5.588-2.7-8.352l-3.12-9.119h-6.241l-3.12,9.119c-.942,2.764-1.883,5.648-2.7,8.352h-.12c-.764-2.764-1.588-5.468-2.529-8.352l-3-9.289-4.549-2.625-4.719,2.721,9.614,28.156h9.182l2.351-6.9c1-2.884,1.883-5.594,2.649-8.237h.122c.767,2.643,1.648,5.353,2.649,8.237l2.351,6.9Z"/><path class="cls-4" d="M77.258,105.2l4.423-2.549L86.2,105.26v17.277l.12.06a13.194,13.194,0,0,1,7.118-2c7.179,0,13.651,5.594,13.651,14.592,0,9.179-6.648,15.654-15.651,15.654a18.467,18.467,0,0,1-7.178-1.472h-7Zm13.536,38.4c4.822,0,7.3-3.765,7.3-8s-2.532-7.531-6.946-7.531a9.781,9.781,0,0,0-4.942,1.412v13A10.126,10.126,0,0,0,90.794,143.6Z"/><path class="cls-4" d="M111.436,105.2l4.422-2.549,4.521,2.608v17.277l.121.06a13.188,13.188,0,0,1,7.118-2c7.178,0,13.65,5.594,13.65,14.592,0,9.179-6.647,15.654-15.651,15.654a18.471,18.471,0,0,1-7.178-1.472h-7Zm13.536,38.4c4.822,0,7.3-3.765,7.3-8s-2.531-7.531-6.945-7.531a9.788,9.788,0,0,0-4.943,1.412v13A10.13,10.13,0,0,0,124.972,143.6Z"/><path class="cls-5" d="M116.768,164.082A6.4,6.4,0,0,0,120,165.13c.811,0,1.41-.322,1.41-1.077,0-.936-.95-1.02-2.25-1.439-1.4-.463-2.656-1.148-2.656-2.91,0-1.886,1.426-3.061,3.551-3.061a6.951,6.951,0,0,1,3.089.728v2.194a6.424,6.424,0,0,0-3.1-.978c-.753,0-1.3.279-1.3.95,0,.895.937.966,2.153,1.37,1.525.5,2.753,1.216,2.753,3.006,0,1.972-1.494,3.16-3.675,3.16a7.436,7.436,0,0,1-3.2-.741Z"/><path class="cls-5" d="M129.452,166.262a3.091,3.091,0,0,1-2.1.811,2.416,2.416,0,0,1-1.79-.685,2.811,2.811,0,0,1-.657-2.111V160.04h2.124v3.916a1.382,1.382,0,0,0,.267.992.976.976,0,0,0,.754.307,2.152,2.152,0,0,0,1.4-.614v-4.6h2.126v6.88h-2.1v-.644Zm-3.845-8.4a1.077,1.077,0,1,1,1.077,1.077A1.088,1.088,0,0,1,125.607,157.859Zm3.132,0a1.077,1.077,0,1,1,1.077,1.077A1.088,1.088,0,0,1,128.739,157.859Z"/><path class="cls-5" d="M137.972,166.542a3.091,3.091,0,0,1-1.749.531,3.254,3.254,0,0,1-3.23-3.453,3.592,3.592,0,0,1,3.637-3.734,3.262,3.262,0,0,1,1.3.253l.028-.015v-3.766l1.045-.624,1.08.624V166.92H138v-.363Zm-.015-4.628a2.478,2.478,0,0,0-1.1-.266,1.7,1.7,0,0,0-1.719,1.874,1.638,1.638,0,0,0,1.636,1.818,2.244,2.244,0,0,0,1.188-.35Z"/><path class="cls-5" d="M141.846,156.358l1.053-.624,1.073.624v4.3l.028.014a3.3,3.3,0,0,1,2.1-.784,2.477,2.477,0,0,1,1.8.7,2.765,2.765,0,0,1,.6,2.041v4.293h-2.126v-3.943a1.352,1.352,0,0,0-.238-.965.906.906,0,0,0-.725-.293,2.45,2.45,0,0,0-1.441.573v4.628h-2.126Z"/><path class="cls-5" d="M151.987,164.039a1.863,1.863,0,0,0,2,1.385,4.289,4.289,0,0,0,2.336-.755v1.775a5.291,5.291,0,0,1-2.616.629c-2.265,0-3.9-1.411-3.9-3.565a3.549,3.549,0,0,1,3.607-3.622,3.183,3.183,0,0,1,3.286,3.426,5.682,5.682,0,0,1-.04.727Zm2.755-1.342a1.344,1.344,0,0,0-1.357-1.188,1.419,1.419,0,0,0-1.411,1.188Z"/><path class="cls-5" d="M157.891,164.641a5.887,5.887,0,0,0,2.712.8c.587,0,.936-.154.936-.531,0-.531-.769-.475-1.8-.74-1.3-.322-2.07-.867-2.07-2,.015-1.453,1.3-2.28,3.008-2.28a6.417,6.417,0,0,1,2.626.546v1.832a5.79,5.79,0,0,0-2.586-.741c-.558,0-.894.168-.894.489,0,.5.74.461,1.761.713,1.315.321,2.111.825,2.111,2.014-.013,1.509-1.327,2.334-3.089,2.334a6.519,6.519,0,0,1-2.712-.573Z"/><path class="cls-5" d="M164.8,164.641a5.887,5.887,0,0,0,2.712.8c.589,0,.938-.154.938-.531,0-.531-.769-.475-1.805-.74-1.3-.322-2.068-.867-2.068-2,.013-1.453,1.3-2.28,3.006-2.28a6.432,6.432,0,0,1,2.628.546v1.832a5.8,5.8,0,0,0-2.586-.741c-.56,0-.894.168-.894.489,0,.5.74.461,1.761.713,1.313.321,2.111.825,2.111,2.014-.015,1.509-1.329,2.334-3.091,2.334a6.525,6.525,0,0,1-2.712-.573Z"/><path class="cls-5" d="M173.653,164.039a1.862,1.862,0,0,0,2,1.385,4.272,4.272,0,0,0,2.333-.755v1.775a5.277,5.277,0,0,1-2.613.629c-2.265,0-3.9-1.411-3.9-3.565a3.549,3.549,0,0,1,3.607-3.622,3.184,3.184,0,0,1,3.286,3.426,5.644,5.644,0,0,1-.043.727Zm2.753-1.342a1.342,1.342,0,0,0-1.355-1.188,1.421,1.421,0,0,0-1.413,1.188Z"/><path class="cls-5" d="M179.751,160.04h2.1v.63l.028.014a3.372,3.372,0,0,1,2.126-.8,2.48,2.48,0,0,1,1.8.7,2.765,2.765,0,0,1,.6,2.041v4.293h-2.126v-3.943a1.373,1.373,0,0,0-.237-.965.913.913,0,0,0-.728-.293,2.455,2.455,0,0,0-1.441.573v4.628h-2.124Z"/></svg>